<svg xmlns="http://www.w3.org/2000/svg" viewBox="0 0 500 500" version="1.1" width="500" height="500">
	<path d="M 244.10313500844504 35.098931794395675 C 225.4618907135753 49.37389121811162, 199.59160439222717 63.76099592169105, 182.5 69.35795554180092 C 161.53819721666943 76.22228267286668, 133.46058562368796 79.69851964846308, 111.91148852277817 78.09738812625785 C 104.02275180693621 77.51124268513034, 97.24768893616123 77.36204358535198, 96.85579325438934 77.76583457119483 C 95.02086621128157 79.65645759703733, 93.70442673789495 138.43740270871626, 94.91332229131125 164.5 C 95.69442742073115 181.33985715117984, 98.776356778833 199.48670031566562, 103.15021355185111 213 C 110.31918449312391 235.14897692931456, 130.54131108347883 264.71770187672814, 155.4687591405904 289.5 C 171.52805261259755 305.46578187869704, 196.69993965895958 324.6333936744329, 198.82153682462865 322.51179650870006 C 199.42812349566267 321.9052098376478, 199.57693816376874 311.91857396130416, 199.87049427734266 252.11849278836647 L 200 225.73698557673293 207.75 226.2518119880898 C 224.71149615834844 227.37855085240545, 245.03569717397107 223.67925875645366, 257.5 217.19660821244642 C 278.302734005977 206.3771619262838, 289.3598218456999 182.30160043784463, 284.9470929297685 157.43365949681925 C 284.3679940411412 154.17014677356866, 281.79815089913694 147.28496491666388, 279.23633039198126 142.13325537036417 C 272.4087294141014 128.40324694946898, 263.95952664769857 121.9882634853131, 245.30746512294445 116.3730605122276 C 236.82765022057418 113.82021230358264, 235.3803145776601 113.70391339929436, 206.40207945336812 113.24686532285585 L 176.30415890673623 112.77215743841657 175.67042217927693 121.63607871920829 C 175.1143743588247 129.41338417632466, 174.4031017466466 257.526005562294, 174.8534231873537 268.79186783986074 C 175.05469539666706 273.82717103765, 174.027673323533 273.6502063129412, 167.77418766191704 267.57205475241204 C 157.31208756310872 257.40328912585886, 142.76943910307364 238.17486623366963, 135.7609221210195 225.24382205999896 C 122.73970006236411 201.21905361514928, 120.11176716291088 187.0254720320668, 119.2837707078547 136.25 L 118.74156241261264 103 122.12078120630632 102.82600991406758 C 123.97935154283785 102.73031536680476, 127.525 102.58363557495457, 130 102.50005482106715 C 151.42381819827438 101.77657244686175, 179.96963125067427 96.16603471705798, 198.1180343028659 89.1117936132062 C 213.03315426918016 83.31432195508431, 236.86671056730776 70.1985687372803, 251.4118249098073 59.78389152010241 C 254.8225221193355 57.34174430239541, 255.52710435782606 57.163353770458706, 256.9118249098073 58.39136716729756 C 260.4153876911674 61.498435973361175, 286.5533621097607 76, 288.65005629520203 76 C 289.71397828741175 76, 290 73.24990813790046, 290 63.02032386540713 L 290 50.04064773081426 285.75 47.88628958347457 C 280.4650395249556 45.20730189929102, 275.8219447696134 42.03475932666734, 263.23489771512925 32.50212787892528 C 259.23909145845033 29.475957545516373, 255.6390914584503 27.030891261337366, 255.23489771512925 27.068647247416365 C 254.83070397180816 27.106403233495367, 249.82141075380028 30.720031279636057, 244.10313500844504 35.098931794395675 M 309.1097576270662 147.25 C 309.29697801709534 244.88499645077806, 309.82696029969884 268.5, 311.8309239242353 268.5 C 312.5629320825647 268.5, 318.11650953147574 263.55, 324.17220714403766 257.5 L 335.18256643960467 246.5 334.84128321980234 170.83700258945944 C 334.65357744891105 129.22235401366214, 334.83265970738125 94.8396943062809, 335.23924379418054 94.43109212861225 C 335.6458278809798 94.0224899509436, 343.5208278809798 95.34853414437342, 352.73924379418054 97.37785700290074 C 361.95765970738125 99.40717986142806, 374.2183122976529 101.3898395688093, 379.98513843922876 101.78376746374794 L 390.47027687845747 102.5 391.1882694566742 106.5 C 392.26837159946206 112.51734433228015, 392.1837895371511 165.32108073393618, 391.07913313642223 174.63271430108057 C 389.0729680259305 191.54356039925514, 384.2524742564269 207.665787798654, 376.61747138315025 223 C 373.4454926406775 229.37063219785804, 368.3076488287979 238.51990384151324, 366.7902118799038 240.5 C 349.7718471534796 262.70718207967593, 326.7618591346196 284.72933665945806, 305.27281321164014 299.3764175673703 C 300.99776594523803 302.29031906958545, 287.9234199937312 310.4311871633057, 276.2187110971805 317.4672355534154 L 254.93742219436098 330.2600508081602 249.7187110971805 327.012843900106 C 229.08746832313076 314.17559102097425, 219.9128576673023 308.93582293471627, 219.02615931053919 309.4838326569645 C 218.41407586360938 309.86212103111836, 218 315.1107427821195, 217.99999999999997 322.4909227837367 L 217.99999999999994 334.8638115787235 221.02517705217517 337.01792764244516 C 228.4724409475362 342.32084727692944, 253.63214749325576 357.0000000000001, 255.27395735822617 357.0000000000001 C 257.76433842383005 357.0000000000001, 305.9968283750156 327.89354506662323, 322.5 316.4316656162189 C 350.4659872614813 297.0085642883888, 376.6121955675595 270.74046303643115, 391.3515382273851 247.25914330102177 C 399.66298478586754 234.01813665589884, 408.76153559841583 211.80304658167205, 412.34555258311013 196 C 416.5879844158805 177.29379739014914, 417.281487360643 166.8809277240519, 416.6745889443667 131 C 416.12241343544054 98.35438914417567, 415.73797196626356 90.93997371920936, 414.1079870434023 81.5 L 413.41731354309604 77.5 399.8064072644948 77.83161712546742 C 373.5828431339884 78.47052997803337, 355.794360238184 75.46107279916428, 320.69837804118185 64.44811343677246 C 316.40748596383185 63.10165104654761, 312.0079003448929 62, 310.9215211102064 62 C 308.96870938571226 62, 308.94814189786285 62.967774411771245, 309.1097576270662 147.25 M 236.78148140651086 138.5105178364787 C 255.01468204708644 142.80927476933653, 261.8737656882495 152.27976043220508, 260.7230622712246 171.5671781992371 C 259.9979514753244 183.72106132932447, 257.49844404954297 188.98804188354643, 250 194.16289441184017 C 242.1590423887699 199.5741236016067, 235.3106569007048 201.10970344995513, 216.25 201.7304911792941 L 200 202.25973844785938 200 169.6298692239297 L 200 137 215.25 137.014781086696 C 225.17461487639366 137.02440053541156, 232.6935283696028 137.54672015745248, 236.78148140651086 138.5105178364787 M 198.40987198333298 367.07735320944084 C 185.1769738024937 370.91848889955094, 184.6290832061005 392.7522143984064, 197.6576938436284 397.05204366162496 C 201.61762106902938 398.3589374999403, 209.47455977842233 397.6809660831534, 211.69149429358188 395.8410738518968 C 212.74598643722473 394.96592310218244, 213.3662410951268 394.96624109512675, 214.24238164405742 395.8423816440574 C 214.8790717398258 396.4790717398258, 216.43499999999997 397, 217.7 397 C 219.91960784313727 397, 220 396.7028985507247, 220 388.5 L 220 380 212 380 L 204 380 204 383.5 C 204 386.7527222910325, 204.2206031358892 387, 207.12244471544216 387 C 209.78456865400602 387, 210.0613638532758 387.2211347928444, 209 388.5 C 207.39182589295552 390.4377312560627, 204.03502026835466 390.41325753652586, 201.2225062434054 388.44329603135094 C 198.009755800456 386.19299802671844, 198.009755800456 377.8070019732815, 201.22250624340543 375.55670396864906 C 204.26436582584762 373.4261025819887, 207.68056613659408 373.6040665173881, 209.73202833649106 376 C 210.9490974820278 377.4214333155112, 212.68196618163307 378, 215.72224086017377 378 C 219.5262431534269 378, 220 377.7438480425324, 220 375.68709120476603 C 220 369.0272529863749, 208.0750776028997 364.2718176608243, 198.40987198333298 367.07735320944084 M 299.678412060258 367.3934683043012 C 294.94079755221725 369.1539348996818, 293.0729372597893 371.5239428294836, 293.03180337187047 375.8269230769231 C 292.98583599901576 380.63552998057924, 297.0552661617048 384.279080982121, 304.25 385.8710987786397 C 310.95582610229786 387.3549333074994, 312.3372517229755 390, 306.4063803848901 390 C 303.6537646860638 390, 302.69036191398675 389.5319460564231, 302.2897490209291 388 C 301.8684530818675 386.3889618541567, 300.92573335579436 386, 297.442385630414 386 C 292.0647581962203 386, 291.36702963221364 387.05866985959085, 293.6778185356639 391.71201169511176 C 297.74597533671 399.9042460474151, 315.672797674801 400.10248014008613, 319.72134670792326 392 C 323.1670000962765 385.10411262890835, 320.26285949748456 380.6361991441099, 310.59177344917083 377.95448736531455 C 301.7526518915137 375.50347242480467, 301.1571352511191 374.96821679693494, 305.71232637893166 373.5687971459662 C 307.2887501449774 373.08449729233564, 308.4305158293049 373.47994401546265, 309.68456723910543 374.94456947227525 C 311.8508173702797 377.47456550206005, 320 377.9505269653152, 320 375.54705302112586 C 320 368.35935199356834, 308.9790122654817 363.9374260386215, 299.678412060258 367.3934683043012 M 90 382 L 90 397 95 397 L 100 397 100 392.6399028359539 L 100 388.2798056719077 105.75 387.69117155441614 C 110.56808842731496 387.1979382971277, 111.96415762196284 386.5847953686812, 114.36390512202425 383.90801020960214 C 116.87253810268835 381.109769339658, 117.16385822838105 380.14610237804027, 116.71228289497844 376.13973787410066 C 115.85246360051029 368.51144366413206, 113.16220745810321 367, 100.44423629867364 367 L 90 367 90 382 M 124.57988414324214 380.7502236178693 C 121.87382042202532 388.3126006280412, 119.46317546014237 395.0625, 119.2228953390578 395.75 C 118.9098268942806 396.6457651378434, 120.25981183686274 397, 123.98663081092559 397 C 128.34623531393618 397, 129.27181682068297 396.6765747972243, 129.7102509790709 395 C 130.1515564657683 393.312445226453, 131.07426664420566 393, 135.616631363961 393 C 140.33333333333334 393, 141 393.247676394369, 141 395 C 141 396.7622015345673, 141.66666666666666 397, 146.60698880418437 397 C 150.6589120861593 397, 152.0928134538011 396.6533198173481, 151.7771046609422 395.75 C 151.53682453985763 395.0625, 149.12617957797468 388.3126006280412, 146.42011585675786 380.7502236178693 L 141.5 367.00044723573865 135.5 367.00044723573865 L 129.5 367.00044723573865 124.57988414324214 380.7502236178693 M 153 367.5260764363413 C 153 367.815418476329, 155.475 371.7489131768091, 158.5 376.26717577074146 C 163.70581130448468 384.04278651061696, 164 384.8169800910135, 164 390.74109933440013 L 164 397 169.5 397 L 175 397 175.00318259359952 390.75 C 175.00605803293686 385.10319172981775, 175.39706953972305 383.920935939375, 179.0546670497144 378.5 C 181.28123307409786 375.2, 183.7663569727823 371.2625, 184.57716460234647 369.75 L 186.0513602924632 367 180.54600401163873 367 C 175.14569531755347 367, 175.00237063990718 367.07502929649064, 173.03461380487596 370.9321513373361 C 170.2054646662662 376.47774178078004, 169.56174887924294 376.5350168748773, 166.87994537993774 371.479767568415 L 164.50343423029136 367 158.75171711514568 367 C 155.58827270181555 367, 153 367.2367343963536, 153 367.5260764363413 M 241 382 L 241 397 246 397 L 251 397 251 382 L 251 367 246 367 L 241 367 241 382 M 257 382 L 257 397 261.95431008922367 397 L 266.90862017844734 397 267.20431008922367 390.41479822295514 L 267.5 383.8295964459102 273 390.35723686237793 C 278.32193979930764 396.6735476492814, 278.65377926423434 396.8867408038305, 283.25 396.94243863942285 L 288 397 288 382 L 288 367 283.04568991077633 367 L 278.09137982155266 367 277.79568991077633 373.46755051335674 L 277.5 379.9351010267134 272.11885513210814 373.46755051335674 C 266.848532188695 367.1331958927235, 266.6374386846556 367, 261.86885513210814 367 L 257 367 257 382 M 325 377.03211863089643 C 325 393.137553219964, 328.25345270523417 397.41616893683374, 340.5 397.41616893683374 C 352.74654729476583 397.41616893683374, 356 393.137553219964, 356 377.03211863089643 L 356 367 350.5 367 L 345 367 345 377.37755528455784 C 345 388.5687232265878, 344.21649319354435 390.4554116303083, 339.8300738799487 389.82676386631414 C 336.35400955365367 389.3285853042574, 335.0311031891861 385.46130466609173, 335.014741802397 375.75 L 335 367 330 367 L 325 367 325 377.03211863089643 M 362 382 L 362 397 367 397 L 372 397 372 391.5 C 372 387.260198661185, 372.3461800830678 386, 373.5108653226805 386 C 374.3485866133638 386, 376.2235413413031 388.4504448678563, 377.71918322402854 391.5 L 380.4166358026961 397 385.70831790134804 397 C 388.6187430556066 397, 390.9787701002409 396.6625, 390.95282244497986 396.25 C 390.9268747897188 395.8375, 389.6581498830967 393.09084029123744, 388.1334337635975 390.1463117583054 L 385.36122263723536 384.79262351661083 388.30392546189273 381.84992069195346 C 390.83004172313974 379.3238044307064, 391.16316758605336 378.38291289672395, 390.65707485235123 375.203608933648 C 389.57062461210023 368.3784653888138, 386.67832411589245 367, 373.4442362986737 367 L 362 367 362 382 M 396 382 L 396 397 409.560365261726 397 L 423.1207305234521 397 422.810365261726 393.25 L 422.5 389.5 414.25 389.2095576571693 C 407.94365451123656 388.98754192887156, 406 388.5860158690575, 406 387.5052475679456 C 406 386.4556024401298, 407.7388491120669 386.0152079491378, 412.75 385.79568991077633 L 419.5 385.5 419.810365261726 381.75 L 420.1207305234521 378 413.060365261726 378 C 407.45115169574734 378, 406 377.6916976016211, 406 376.5 C 406 375.2916666666667, 407.55555555555554 375, 414 375 L 422 375 422 371 L 422 367 409 367 L 396 367 396 382 M 105.8948083364103 375.37325179934055 C 107.70969146064279 377.56005218402606, 106.12667287835926 380, 102.89301119581566 380 C 100.34522097824271 380, 100 379.64201212348365, 100 377 C 100 374.5078668747081, 100.40249385727135 374, 102.37755528455783 374 C 103.68521069106464 374, 105.26797456439826 374.61796330970327, 105.8948083364103 375.37325179934055 M 379.5 376.5 C 379.5 378.08926839791536, 378.72987824609135 378.5637384105901, 375.75 378.810365261726 C 372.2916478236364 379.0965925626214, 372 378.91690909585145, 372 376.5 C 372 374.08309090414855, 372.2916478236364 373.9034074373786, 375.75 374.189634738274 C 378.72987824609135 374.4362615894099, 379.5 374.91073160208464, 379.5 376.5 M 137.92392207449663 384.75 C 137.96576493352347 385.4375, 136.875 386, 135.5 386 C 132.69370888672415 386, 132.44863501830196 384.88009315208905, 134.17266785241884 379.93452932742866 L 135.34533570483768 376.57061212440414 136.59658992691547 380.03530606220204 C 137.28477974905826 381.9408877279909, 137.8820792154698 384.0625, 137.92392207449663 384.75 M 202.5 412 C 202.16008130618755 412.55, 202.35852365871884 413, 202.94098300562507 413 C 204.45914964044636 413, 204.28080018459318 421.72002799569043, 202.75 422.3377192982456 C 202.0625 422.6151315789474, 203.8625 422.8776315789474, 206.75 422.92105263157896 C 211.05546955624354 422.98579653468033, 212 422.69415204678364, 212 421.3 C 212 419.9777777777778, 211.73333333333332 419.8666666666667, 210.8 420.8 C 208.81705526276423 422.78294473723577, 206 422.25064524054915, 206 419.8930111958157 C 206 418.4309749219426, 206.4591523189614 417.96221566830184, 207.5 418.36162639947696 C 208.51521732997094 418.75120184212074, 209 418.31113992110704, 209 417 C 209 415.68886007889296, 208.51521732997094 415.24879815787926, 207.5 415.63837360052304 C 206.55015657846002 416.00286272069917, 206 415.62458063361294, 206 414.6069888041843 C 206 412.7087757992582, 209.59639189359868 412.4127973015271, 210.33771929824562 414.25 C 210.61513157894737 414.9375, 210.87763157894736 414.4875, 210.92105263157896 413.25 C 210.9900376340874 411.2839274285088, 210.5026874797405 411, 207.05901699437493 411 C 204.89147634128116 411, 202.83991869381245 411.45, 202.5 412 M 214.6420332034866 412.1804522457564 C 212.17438465941723 413.5614178014815, 212.65417775604575 415.61756442093866, 216 418 C 217.65 419.174903631702, 219 420.5555460264892, 219 421.06809421063815 C 219 422.7073174811419, 215.13724401524973 422.0650081786923, 214.08009879947198 420.25 C 213.15818284507043 418.66716637191166, 213.05791262340344 418.70378713990675, 213.03040868590074 420.633368636039 C 212.9946815861393 423.13985886506333, 216.3837305314088 424.400184927418, 219.16167321410583 422.91347512162804 C 221.97454516453183 421.4080717390536, 221.40442461276012 418.26049638764016, 218 416.5 C 214.9173387377578 414.9058939075477, 213.99161883980608 413, 216.3 413 C 217.015 413, 218.14 413.54, 218.8 414.2 C 219.73333333333332 415.1333333333333, 220 415.0481403031024, 220 413.81663136396094 C 220 411.8806447471242, 216.88016473111182 410.9279308701897, 214.6420332034866 412.1804522457564 M 222.07894736842104 413.25 C 222.12236842105264 414.4875, 222.38486842105263 414.9375, 222.66228070175438 414.25 C 222.93969298245614 413.5625, 223.84759768352026 413, 224.67984670411911 413 C 225.8752172018823 413, 226.12024937725278 414.0502684506447, 225.84651337078577 418.000621614554 C 225.53819226685542 422.45008101937, 225.72043747846627 423.00124322910807, 227.5 423.00124322910807 C 229.27956252153373 423.00124322910807, 229.46180773314458 422.45008101937, 229.15348662921423 418.000621614554 C 228.87975062274722 414.0502684506447, 229.1247827981177 413, 230.32015329588089 413 C 231.15240231647974 413, 232.06030701754386 413.5625, 232.33771929824562 414.25 C 232.61513157894737 414.9375, 232.87763157894736 414.4875, 232.92105263157896 413.25 C 232.99369036626655 411.1798245614035, 232.56042884990254 411, 227.5 411 C 222.43957115009746 411, 222.00630963373345 411.1798245614035, 222.07894736842104 413.25 M 234.5 416.8986343866911 L 234.5 422.99440826782825 238.55 422.9972041339141 C 243.42819880353326 423.00057173653016, 245 421.6420580118839, 245 417.4224447154422 C 245 413.55448052008165, 243.2713422504712 411.98034594735554, 238.28921854809326 411.31153404134545 L 234.5 410.80286050555395 234.5 416.8986343866911 M 265.38399601662593 412.4611657655811 C 264.362730593988 413.2079332750442, 263.928995249311 414.3725812947727, 264.30613526226375 415.3553924144285 C 265.2069052702709 417.70276142783723, 266.91644103821505 417.39647395555716, 266.2897490209291 415 C 265.92601543230813 413.60908062038754, 266.2590666891277 413, 267.383368636039 413 C 269.9475953384061 413, 269.3141286789917 417.0619412721797, 266.25 420.2674335277202 L 263.5 423.1443047776695 267.4227003963947 422.82215238883475 C 269.59589505960696 422.6436784343109, 271.544141855883 421.89570376637334, 271.79101330619295 421.1450612706052 C 272.117894473534 420.15113955562157, 271.6444441835426 419.97807369122427, 270.0140994524263 420.49552500763826 L 267.7915730852561 421.2009274740661 269.93938232927326 418.29586000415924 C 271.143941593628 416.6666064081058, 271.81808209250516 414.6895044687144, 271.47442100032936 413.7939380181034 C 270.6435249844561 411.62865770938095, 267.47173627699317 410.9345728152264, 265.38399601662593 412.4611657655811 M 275.1546062590444 412.6042629689622 C 273.66969133955945 413.64433786419687, 273 415.16602317290887, 273 417.5 C 273 423.6683984042711, 279.72719462326137 425.5856151363, 281.52256956806923 419.92888958783556 C 283.22044713922514 414.5793510623602, 279.1004945158741 409.8404552507707, 275.1546062590444 412.6042629689622 M 285.8351438840421 411.73177336072376 C 282.5787395764684 412.4791104416447, 282.4468583602012 417, 285.68146170981714 417 C 286.91394960536655 417, 286.99701642069687 416.70133129412375, 286.073886409942 415.58902767761015 C 284.7733258662045 414.02194809029254, 286.2511357417809 412.4191424467107, 288 413.5 C 289.6162443232105 414.4988939258682, 289.18622524833995 415.7183087030265, 285.89640780531147 419.46520377169384 L 282.792815610623 423 286.89640780531147 423 C 289.75597108592837 423, 291 422.5736472388141, 291 421.5936196151099 C 291 420.63751125017217, 290.2796315593012 420.3647810390696, 288.75 420.7417736147696 L 286.5 421.2963079993194 288.75 418.83370277829215 C 289.9875 417.4792699067271, 291 415.6284332981998, 291 414.7207325371204 C 291 412.79122847937225, 288.2225274373836 411.18387448599145, 285.8351438840421 411.73177336072376 M 294.46861520366133 413.5 C 294.2108768416476 414.325, 293.7778314219703 415.7044257933272, 293.50629204882296 416.56539065183813 C 293.1330992843671 417.74866603442007, 293.49925255301685 417.97631873629246, 295.00629204882296 417.49800298128105 C 296.5461501776304 417.00927099679046, 297 417.3224123197463, 297 418.873595335068 C 297 421.15736389431544, 294.82192449960377 422.96577349881125, 294.2256836610416 421.17705098312484 C 293.651162274574 419.45348682372213, 292 419.7400757865386, 292 421.5633584840881 C 292 422.7247595397954, 292.8356123406973 423.046148901602, 295.25 422.8133584840881 C 299.47379709850264 422.40610843612427, 300.4178703973853 418.10652302131143, 296.83458567748966 415.596692706633 C 295.0612219595115 414.35458040848937, 294.92440154945837 414, 296.2184767622196 414 C 297.1333958491864 414, 298.1600813061875 413.55, 298.5 413 C 298.8399186938125 412.45, 298.17735318292875 412, 297.02763219803626 412 C 295.87791121314376 412, 294.726353565675 412.675, 294.46861520366133 413.5 M 241.8 414.2 C 244.592732279155 416.99273227915495, 241.95541264581803 422.96433984565186, 238.51273493570125 421.6432604538759 C 236.16566469687885 420.742605096435, 236.42299582356844 413, 238.8 413 C 239.79 413, 241.14 413.54, 241.8 414.2 M 279 417.5 C 279 422.34015887733057, 276.7375923574401 423.89930823484104, 275.47709358782043 419.9278282860221 C 274.5578779300237 417.0316362058971, 275.74619167559416 413, 277.5190520282149 413 C 278.607582957738 413, 279 414.1923961704411, 279 417.5" stroke="none" fill="#000000" fill-rule="evenodd" data-fill-layer-id="trace-color"/>
</svg>